<svg width="259" height="94" viewBox="0 0 259 94" fill="none" xmlns="http://www.w3.org/2000/svg">
<path d="M59.8889 56.8571H66.1111C66.1111 58.5857 64.7111 60 63 60C61.2889 60 59.8889 58.5857 59.8889 56.8571ZM77 53.7143V55.2857H49V53.7143L52.1111 50.5714V41.1429C52.1111 36.2714 55.2222 32.0286 59.8889 30.6143V30.1429C59.8889 28.4143 61.2889 27 63 27C64.7111 27 66.1111 28.4143 66.1111 30.1429V30.6143C70.7778 32.0286 73.8889 36.2714 73.8889 41.1429V50.5714L77 53.7143ZM70.7778 41.1429C70.7778 36.7429 67.3556 33.2857 63 33.2857C58.6444 33.2857 55.2222 36.7429 55.2222 41.1429V52.1429H70.7778V41.1429Z" fill="white"/>
<path d="M190 55V51H227V55H190ZM190 45V41H227V45H190ZM190 35V31H227V35H190Z" fill="white"/>
<path d="M143.4 53.4C144.275 53.4 145.115 53.7477 145.733 54.3665C146.352 54.9854 146.7 55.8248 146.7 56.7C146.7 57.5752 146.352 58.4146 145.733 59.0335C145.115 59.6523 144.275 60 143.4 60C142.525 60 141.685 59.6523 141.067 59.0335C140.448 58.4146 140.1 57.5752 140.1 56.7C140.1 54.8685 141.569 53.4 143.4 53.4ZM117 27H122.395L123.946 30.3H148.35C148.788 30.3 149.207 30.4738 149.517 30.7833C149.826 31.0927 150 31.5124 150 31.95C150 32.2305 149.917 32.511 149.802 32.775L143.895 43.4505C143.334 44.457 142.245 45.15 141.007 45.15H128.715L127.23 47.8395L127.181 48.0375C127.181 48.1469 127.224 48.2518 127.301 48.3292C127.379 48.4065 127.484 48.45 127.593 48.45H146.7V51.75H126.9C126.025 51.75 125.185 51.4023 124.567 50.7835C123.948 50.1646 123.6 49.3252 123.6 48.45C123.6 47.8725 123.748 47.328 123.996 46.866L126.24 42.8235L120.3 30.3H117V27ZM126.9 53.4C127.775 53.4 128.615 53.7477 129.233 54.3665C129.852 54.9854 130.2 55.8248 130.2 56.7C130.2 57.5752 129.852 58.4146 129.233 59.0335C128.615 59.6523 127.775 60 126.9 60C126.025 60 125.185 59.6523 124.567 59.0335C123.948 58.4146 123.6 57.5752 123.6 56.7C123.6 54.8685 125.068 53.4 126.9 53.4ZM141.75 41.85L146.337 33.6H125.481L129.375 41.85H141.75Z" fill="white"/>
</svg>
