<svg width="37" height="42" viewBox="0 0 37 42" fill="none" xmlns="http://www.w3.org/2000/svg">
<path d="M25.1756 0.0402987C24.8438 0.111888 24.528 0.217789 24.2378 0.354746L2.59691 8.21594C2.08974 8.32341 1.62126 8.51051 1.22459 8.76401C0.827919 9.01751 0.512743 9.33123 0.301346 9.68298C0.0899488 10.0347 -0.0125086 10.4159 0.00121776 10.7996C0.0149441 11.1833 0.144519 11.5601 0.380782 11.9034C0.617044 12.2467 0.954225 12.5481 1.36849 12.7863C1.78275 13.0245 2.26397 13.1936 2.77814 13.2818C3.2923 13.37 3.82686 13.375 4.344 13.2966C4.86115 13.2182 5.34826 13.0581 5.7709 12.8278L27.4118 4.96665C28.1886 4.68597 28.8001 4.21129 29.1342 3.62963C29.4683 3.04796 29.5027 2.39828 29.231 1.79971C28.9593 1.20113 28.3997 0.69376 27.6548 0.370612C26.91 0.0474644 26.0298 -0.0698064 25.1756 0.0402987ZM32.3892 7.90149C32.0574 7.97308 31.7416 8.07898 31.4514 8.21594L2.59691 18.6975C2.08974 18.805 1.62126 18.9921 1.22459 19.2456C0.827919 19.4991 0.512743 19.8128 0.301346 20.1646C0.0899488 20.5163 -0.0125086 20.8975 0.00121776 21.2812C0.0149441 21.6649 0.144519 22.0417 0.380782 22.385C0.617044 22.7283 0.954225 23.0297 1.36849 23.2679C1.78275 23.5061 2.26397 23.6752 2.77814 23.7634C3.2923 23.8516 3.82686 23.8566 4.344 23.7782C4.86115 23.6997 5.34826 23.5397 5.7709 23.3094L34.6254 12.8278C35.4022 12.5472 36.0137 12.0725 36.3478 11.4908C36.682 10.9092 36.7163 10.2595 36.4446 9.6609C36.1729 9.06232 35.6133 8.55495 34.8685 8.2318C34.1236 7.90866 33.2434 7.79139 32.3892 7.90149ZM32.3892 18.3831C32.0574 18.4547 31.7416 18.5606 31.4514 18.6975L9.81053 26.5587C9.11247 26.8317 8.55762 27.2641 8.23178 27.7891C7.90594 28.3141 7.82726 28.9025 8.00791 29.4633C8.18857 30.0241 8.61848 30.526 9.23119 30.8915C9.84389 31.2569 10.6052 31.4655 11.3975 31.4851H25.8248C26.7814 31.5963 27.7596 31.4268 28.5442 31.014C29.3288 30.6012 29.8556 29.9789 30.0087 29.2839C30.1617 28.589 29.9285 27.8783 29.3603 27.3082C28.7922 26.7382 27.9355 26.3555 26.979 26.2443L34.6254 23.3094C35.4022 23.0288 36.0137 22.5541 36.3478 21.9724C36.682 21.3907 36.7163 20.7411 36.4446 20.1425C36.1729 19.5439 35.6133 19.0365 34.8685 18.7134C34.1236 18.3902 33.2434 18.273 32.3892 18.3831ZM13.9223 36.7259C12.9657 36.8371 12.1091 37.2198 11.5409 37.7898C10.9727 38.3599 10.7395 39.0706 10.8926 39.7655C11.0456 40.4605 11.5724 41.0828 12.3571 41.4956C13.1417 41.9084 14.1199 42.0779 15.0765 41.9667H22.2901C23.2467 41.9667 24.1641 41.6906 24.8405 41.1992C25.5169 40.7077 25.8969 40.0412 25.8969 39.3463C25.8969 38.6513 25.5169 37.9848 24.8405 37.4934C24.1641 37.0019 23.2467 36.7259 22.2901 36.7259H15.0765C14.8605 36.7117 14.6432 36.7117 14.4273 36.7259C14.2831 36.7196 14.1386 36.7196 13.9944 36.7259H13.9223Z" fill="white"/>
</svg>
