<svg width="51" height="594" viewBox="0 0 51 594" fill="none" xmlns="http://www.w3.org/2000/svg">
<path d="M30.125 587.062H44M37.0625 594V580.125" stroke="white" stroke-width="4.61115" stroke-miterlimit="10" stroke-linecap="round"/>
<path d="M17.175 557H10.7C9.7187 557 8.77759 557.39 8.08371 558.084C7.38982 558.778 7 559.719 7 560.7V567.175C7 568.156 7.38982 569.097 8.08371 569.791C8.77759 570.485 9.7187 570.875 10.7 570.875H17.175C18.1563 570.875 19.0974 570.485 19.7913 569.791C20.4852 569.097 20.875 568.156 20.875 567.175V560.7C20.875 559.719 20.4852 558.778 19.7913 558.084C19.0974 557.39 18.1563 557 17.175 557ZM17.175 580.125H10.7C9.7187 580.125 8.77759 580.515 8.08371 581.209C7.38982 581.903 7 582.844 7 583.825V590.3C7 591.281 7.38982 592.222 8.08371 592.916C8.77759 593.61 9.7187 594 10.7 594H17.175C18.1563 594 19.0974 593.61 19.7913 592.916C20.4852 592.222 20.875 591.281 20.875 590.3V583.825C20.875 582.844 20.4852 581.903 19.7913 581.209C19.0974 580.515 18.1563 580.125 17.175 580.125ZM40.3 557H33.825C32.8437 557 31.9026 557.39 31.2087 558.084C30.5148 558.778 30.125 559.719 30.125 560.7V567.175C30.125 568.156 30.5148 569.097 31.2087 569.791C31.9026 570.485 32.8437 570.875 33.825 570.875H40.3C41.2813 570.875 42.2224 570.485 42.9163 569.791C43.6102 569.097 44 568.156 44 567.175V560.7C44 559.719 43.6102 558.778 42.9163 558.084C42.2224 557.39 41.2813 557 40.3 557Z" stroke="white" stroke-width="4.61115" stroke-miterlimit="10"/>
<path d="M40.0452 10.411C37.9904 8.37067 35.5488 6.76132 32.8636 5.67739C30.1784 4.59345 27.3037 4.05678 24.4083 4.09885C18.973 4.08527 13.7549 6.23141 9.90188 10.0652C6.0489 13.8989 3.87669 19.1063 3.8631 24.5416C3.84951 29.9769 5.99566 35.1951 9.82942 39.048C13.6632 42.901 18.8705 45.0732 24.3058 45.0868C25.4771 45.1067 26.6217 44.7372 27.5602 44.0361C28.4986 43.3351 29.1777 42.3422 29.4908 41.2135C29.6904 40.3983 29.6884 39.5468 29.4848 38.7326C29.2813 37.9185 28.8824 37.1662 28.3227 36.5408C28.1933 36.3936 28.1088 36.2122 28.0794 36.0184C28.0499 35.8245 28.0767 35.6263 28.1565 35.4473C28.2363 35.2682 28.3659 35.1158 28.5297 35.0081C28.6936 34.9004 28.8849 34.842 29.0809 34.8398H32.4625C35.6451 34.8547 38.7155 33.665 41.0572 31.5096C43.3988 29.3542 44.8384 26.3927 45.0868 23.2197C45.163 20.8539 44.7551 18.4975 43.8882 16.2949C43.0213 14.0924 41.7136 12.0901 40.0452 10.411ZM32.5444 30.741H29.1629C28.1754 30.7354 27.2074 31.0165 26.3765 31.5502C25.5455 32.0838 24.8873 32.8472 24.4815 33.7475C24.0758 34.6479 23.9401 35.6467 24.0908 36.6227C24.2415 37.5987 24.6722 38.51 25.3305 39.246C25.4587 39.3754 25.5494 39.5372 25.5927 39.7141C25.636 39.8909 25.6304 40.0763 25.5765 40.2502C25.474 40.6806 25.0026 40.947 24.3673 40.988C22.0399 40.9582 19.7454 40.4331 17.6367 39.4477C15.5279 38.4623 13.6531 37.0392 12.137 35.273C10.6209 33.5068 9.49828 31.4381 8.84377 29.2043C8.18926 26.9706 8.01788 24.6231 8.34104 22.318C8.92546 18.4445 10.8609 14.9025 13.805 12.3184C16.7491 9.73437 20.5123 8.27472 24.4288 8.19765H24.5928C26.9103 8.16731 29.2105 8.6014 31.3576 9.47431C33.5046 10.3472 35.4552 11.6413 37.0941 13.2802C38.3729 14.5598 39.3777 16.0865 40.0472 17.7672C40.7166 19.4479 41.0367 21.2473 40.988 23.0558C40.7758 25.1525 39.7963 27.0968 38.2379 28.5153C36.6794 29.9338 34.6518 30.7265 32.5444 30.741Z" fill="white"/>
<path d="M24.5928 16.3951C26.2906 16.3951 27.6669 15.0188 27.6669 13.321C27.6669 11.6233 26.2906 10.2469 24.5928 10.2469C22.895 10.2469 21.5187 11.6233 21.5187 13.321C21.5187 15.0188 22.895 16.3951 24.5928 16.3951Z" fill="white"/>
<path d="M31.2533 14.7557C30.727 15.0598 30.3026 15.513 30.0338 16.0582C29.765 16.6034 29.6639 17.2161 29.7432 17.8187C29.8225 18.4214 30.0787 18.987 30.4794 19.4441C30.8801 19.9012 31.4073 20.2292 31.9944 20.3867C32.5815 20.5442 33.2021 20.5241 33.7778 20.329C34.3535 20.1339 34.8584 19.7725 35.2287 19.2905C35.5991 18.8084 35.8182 18.2274 35.8584 17.6209C35.8986 17.0144 35.7581 16.4096 35.4546 15.8829C35.2529 15.5329 34.9842 15.226 34.6639 14.9799C34.3435 14.7338 33.9778 14.5532 33.5876 14.4485C33.1974 14.3438 32.7904 14.3171 32.3899 14.3698C31.9894 14.4225 31.6032 14.5536 31.2533 14.7557Z" fill="white"/>
<path d="M17.9322 14.7557C17.4055 14.4523 16.8007 14.3117 16.1941 14.3519C15.5876 14.3921 15.0066 14.6113 14.5246 14.9816C14.0426 15.3519 13.6812 15.8568 13.4861 16.4325C13.2909 17.0082 13.2709 17.6288 13.4284 18.2159C13.5859 18.803 13.9139 19.3302 14.371 19.7309C14.8281 20.1316 15.3937 20.3878 15.9963 20.4671C16.599 20.5464 17.2116 20.4453 17.7568 20.1765C18.302 19.9077 18.7553 19.4833 19.0593 18.957C19.2614 18.6072 19.3926 18.221 19.4453 17.8204C19.498 17.4199 19.4712 17.0129 19.3666 16.6227C19.2619 16.2325 19.0813 15.8668 18.8352 15.5465C18.5891 15.2261 18.2822 14.9574 17.9322 14.7557Z" fill="white"/>
<path d="M12.6242 23.0763C12.12 23.4167 11.7282 23.8992 11.4983 24.4624C11.2684 25.0257 11.2108 25.6446 11.3329 26.2406C11.4549 26.8366 11.751 27.3831 12.1838 27.8107C12.6166 28.2383 13.1665 28.5279 13.764 28.6428C14.3614 28.7577 14.9795 28.6927 15.54 28.4561C16.1005 28.2195 16.5782 27.8219 16.9126 27.3136C17.247 26.8054 17.4231 26.2093 17.4185 25.6009C17.4139 24.9926 17.229 24.3992 16.887 23.896C16.6623 23.5607 16.3734 23.2731 16.0369 23.0501C15.7004 22.8271 15.323 22.673 14.9266 22.5968C14.5302 22.5206 14.1226 22.5237 13.7274 22.606C13.3322 22.6883 12.9573 22.8481 12.6242 23.0763Z" fill="white"/>
<path d="M40.5192 195.358C44.2556 191.834 39.9331 187.263 31.7586 190.095C31.2774 190.262 30.8298 190.438 30.4077 190.621C31.2085 189.083 32.3914 187.404 34.1621 185.797C34.1621 185.797 30.8552 186.985 29.3272 186.684C27.432 186.311 26.8377 184 26.8377 184C26.8377 184 24.8662 188.294 23.862 191.664C22.4241 188.768 20.8314 185.951 20.8314 185.951C20.8314 185.951 19.9813 187.922 18.4246 188.671C17.1696 189.278 12.0068 189.801 12.0068 189.801C13.7283 190.681 15.2063 191.769 16.4605 192.894C15.1415 192.545 13.6357 192.283 11.9134 192.158C5.07341 191.662 2.3871 194.103 3.30194 196.513L0 196.619L1.79688 203.357L2.91338 203.674C5.56279 212.649 4.92175 222.608 4.91356 222.721L4.86847 223.37L5.48656 223.552C15.3833 226.467 24.3751 233.185 24.3751 233.185C24.3751 233.185 36.0336 225.469 42.444 223.55L43.0047 223.382L43.0162 222.792C43.0194 222.653 43.2998 210.222 46.5173 202.12C46.7435 202.088 46.9567 202.062 47.1395 202.051L47.8174 202.01L47.8855 201.328C47.8879 201.301 48.165 197.396 49.1856 195.804L40.5192 195.358ZM2.12068 198.51L7.43509 199.951V203.282L3.02404 202.029L2.12068 198.51ZM10.3788 223.522C9.15984 223.05 7.88349 222.599 6.54157 222.185C6.6465 219.872 6.79815 211.898 4.71108 204.184L8.57208 205.281C9.31969 208.578 10.5608 215.372 10.3788 223.522ZM16.8491 194.692C23.4841 195.172 24.6506 198.597 24.6506 198.597C24.6506 198.597 20.6084 200.075 18.1106 200.075C9.96073 200.075 8.78358 194.107 16.8491 194.692ZM25.0367 199.101L31.6979 199.856L23.3939 201.866L18.6509 200.806L25.0367 199.101ZM17.0614 202.102L22.6028 203.34V207.59L16.8818 205.994L17.0614 202.102ZM23.6529 230.742C22.443 229.843 20.4264 228.457 17.7491 226.971C17.9615 223.055 17.9869 212.592 17.9877 207.955L23.6529 209.564V230.742ZM31.0684 227.171C28.6157 228.619 26.5122 230 25.2482 230.857V208.83C26.7532 208.278 29.1928 207.393 31.9389 206.439C31.4577 211.077 31.1569 223.181 31.0684 227.171ZM33.7571 204.356C33.7571 204.356 25.7744 206.918 24.1997 207.499V203.33L33.8817 200.987L33.7571 204.356ZM32.7734 198.24C29.0362 199.197 25.0613 198.522 25.0613 198.522C25.0613 198.522 24.3161 194.862 30.3494 192.772C37.6829 190.232 40.5823 196.239 32.7734 198.24ZM38.2748 196.847L43.026 197.114L40.1725 197.805L36.7648 197.469C37.3165 197.277 37.8173 197.068 38.2748 196.847ZM41.4357 222.177C40.2495 222.565 38.9986 223.072 37.7378 223.647C37.7468 219.807 37.9813 211.297 39.7601 203.854C41.589 203.29 43.2842 202.809 44.6679 202.484C42.0226 209.85 41.5218 219.665 41.4357 222.177ZM46.3853 200.51C46.3853 200.51 43.7613 201.279 42.0857 201.742L42.5071 198.899L47.069 197.796C46.6952 198.824 46.3853 200.51 46.3853 200.51Z" fill="white"/>
<path d="M24.0558 366.074H27.1299V373.759H24.0558V366.074Z" fill="white"/>
<path d="M34.3334 376.679L39.722 371.29L41.8955 373.464L36.5069 378.852L34.3334 376.679Z" fill="white"/>
<path d="M39.4263 386.056H47.1115V389.13H39.4263V386.056Z" fill="white"/>
<path d="M34.3333 398.507L36.5067 396.333L41.8954 401.722L39.7219 403.895L34.3333 398.507Z" fill="white"/>
<path d="M24.0558 401.426H27.1299V409.111H24.0558V401.426Z" fill="white"/>
<path d="M9.29016 401.722L14.6788 396.333L16.8523 398.507L11.4637 403.895L9.29016 401.722Z" fill="white"/>
<path d="M4.0741 386.056H11.7593V389.13H4.0741V386.056Z" fill="white"/>
<path d="M9.29016 373.464L11.4637 371.29L16.8523 376.679L14.6788 378.852L9.29016 373.464Z" fill="white"/>
<path d="M25.5928 381.445C26.8088 381.445 27.9975 381.805 29.0085 382.481C30.0196 383.156 30.8076 384.117 31.273 385.24C31.7383 386.363 31.8601 387.6 31.6228 388.792C31.3856 389.985 30.8001 391.08 29.9402 391.94C29.0804 392.8 27.9849 393.386 26.7922 393.623C25.5996 393.86 24.3634 393.738 23.24 393.273C22.1165 392.808 21.1563 392.02 20.4807 391.009C19.8052 389.997 19.4446 388.809 19.4446 387.593C19.4464 385.963 20.0948 384.4 21.2474 383.247C22.4 382.095 23.9627 381.446 25.5928 381.445ZM25.5928 378.37C23.7688 378.37 21.9857 378.911 20.4691 379.925C18.9525 380.938 17.7705 382.378 17.0725 384.064C16.3745 385.749 16.1918 387.603 16.5477 389.392C16.9035 391.181 17.7819 392.824 19.0716 394.114C20.3614 395.404 22.0047 396.282 23.7936 396.638C25.5826 396.994 27.4368 396.811 29.122 396.113C30.8072 395.415 32.2475 394.233 33.2608 392.716C34.2742 391.2 34.8151 389.417 34.8151 387.593C34.8151 385.147 33.8434 382.801 32.1139 381.072C30.3844 379.342 28.0387 378.37 25.5928 378.37Z" fill="white"/>
<path d="M25.0822 459L25.0759 459.006L25.0696 459.013C22.4168 464.715 20.3595 470.525 19.1938 474.085C15.3502 474.088 9.027 474.233 3 475.014L3.00315 475.021V475.027L3.00945 475.033V475.039C7.61241 479.327 12.5052 483.073 15.5329 485.285C14.3483 488.94 12.5273 495.001 11.4088 500.975H11.434C16.938 497.925 22.0136 494.428 25.0539 492.232C28.1603 494.488 33.3713 498.092 38.7052 501V500.994V500.987V500.981L38.7115 500.975C37.5111 494.8 35.75 488.889 34.6032 485.323C37.7096 483.061 42.7379 479.227 47.155 475.052L47.1487 475.049H47.1424L47.1361 475.043V475.036C40.8917 474.271 34.7324 474.116 30.9832 474.107C29.7954 470.455 27.694 464.488 25.0948 459H25.0854H25.0822ZM25.0885 467.639C26.0778 470.247 27.3979 473.278 27.987 475.084L28.6959 477.251L30.9706 477.257C32.8231 477.264 36.1785 477.582 38.9415 477.717C36.7645 479.466 34.2881 481.656 32.7507 482.777L30.9044 484.119L31.6039 486.293C32.171 488.051 32.905 491.337 33.6297 494.006C31.2951 492.478 28.4439 490.805 26.9032 489.69L25.057 488.344L23.2108 489.68C21.7111 490.764 18.8126 492.475 16.5001 493.987C17.231 491.296 17.9431 488.067 18.5291 486.259L19.2316 484.094L17.3917 482.746C15.8952 481.652 13.3716 479.428 11.2166 477.695C14.0049 477.56 17.2972 477.242 19.2001 477.239L21.478 477.232L22.19 475.068C22.7666 473.307 24.1055 470.222 25.0885 467.639Z" fill="white"/>
</svg>
